# Blender 5.2.2 LTS
# www.blender.org
mtllib projectile_spell.mtl
o Sphere
v 0.000000 -0.714143 -1.307320
v 0.000000 -0.665534 -0.987539
v 0.000000 -0.622961 0.046868
v 0.000000 0.000018 0.988050
v 0.139322 -0.700421 -1.307321
v 0.129840 -0.652746 -0.987539
v 0.121243 -0.609522 -0.514913
v 0.121536 -0.610991 0.046867
v 0.098913 -0.497255 0.521769
v 0.084908 -0.426849 0.754548
v 0.063758 -0.320517 0.865177
v 0.035103 -0.176458 0.945124
v 0.273291 -0.659782 -1.307322
v 0.254690 -0.614873 -0.987540
v 0.237826 -0.574157 -0.514914
v 0.238401 -0.575540 0.046867
v 0.194024 -0.468403 0.521768
v 0.166554 -0.402082 0.754548
v 0.125066 -0.301920 0.865177
v 0.068857 -0.166219 0.945123
v 0.396757 -0.593788 -1.307323
v 0.369753 -0.553371 -0.987541
v 0.345271 -0.516727 -0.514915
v 0.346104 -0.517972 0.046866
v 0.281680 -0.421551 0.521767
v 0.241799 -0.361862 0.754547
v 0.181568 -0.271719 0.865176
v 0.099965 -0.149591 0.945123
v 0.504975 -0.504975 -1.307324
v 0.470606 -0.470603 -0.987542
v 0.439446 -0.439439 -0.514916
v 0.440507 -0.440497 0.046864
v 0.358510 -0.358497 0.521766
v 0.307751 -0.307737 0.754546
v 0.231092 -0.231076 0.865176
v 0.127231 -0.127214 0.945123
v 0.593788 -0.396756 -1.307326
v 0.553375 -0.369750 -0.987544
v 0.516734 -0.345264 -0.514918
v 0.517982 -0.346094 0.046863
v 0.421563 -0.281667 0.521765
v 0.361877 -0.241784 0.754545
v 0.271735 -0.181552 0.865175
v 0.149608 -0.099948 0.945122
v 0.659782 -0.273290 -1.307328
v 0.614877 -0.254687 -0.987547
v 0.574164 -0.237820 -0.514920
v 0.575551 -0.238391 0.046861
v 0.468416 -0.194012 0.521763
v 0.402096 -0.166539 0.754543
v 0.301936 -0.125050 0.865174
v 0.166236 -0.068840 0.945122
v 0.700421 -0.139322 -1.307331
v 0.652750 -0.129837 -0.987549
v 0.609529 -0.121236 -0.514922
v 0.611002 -0.121526 0.046859
v 0.497268 -0.098900 0.521761
v 0.426863 -0.084894 0.754542
v 0.320534 -0.063742 0.865173
v 0.176475 -0.035086 0.945121
v 0.714143 0.000000 -1.307333
v 0.665538 0.000003 -0.987551
v 0.621471 0.000007 -0.514924
v 0.622972 0.000010 0.046857
v 0.507010 0.000013 0.521760
v 0.435226 0.000015 0.754541
v 0.326813 0.000016 0.865172
v 0.179933 0.000017 0.945121
v 0.700421 0.139323 -1.307336
v 0.652750 0.129843 -0.987553
v 0.609529 0.121250 -0.514926
v 0.611002 0.121546 0.046854
v 0.497268 0.098925 0.521758
v 0.426863 0.084923 0.754539
v 0.320534 0.063774 0.865171
v 0.176475 0.035120 0.945120
v 0.659782 0.273291 -1.307338
v 0.614877 0.254694 -0.987555
v 0.574164 0.237833 -0.514928
v 0.575551 0.238411 0.046852
v 0.468416 0.194037 0.521756
v 0.402096 0.166568 0.754537
v 0.301936 0.125082 0.865170
v 0.166236 0.068875 0.945120
v 0.593788 0.396757 -1.307341
v 0.553375 0.369757 -0.987557
v 0.516734 0.345277 -0.514930
v 0.517982 0.346115 0.046851
v 0.421563 0.281692 0.521754
v 0.361877 0.241813 0.754536
v 0.271736 0.181584 0.865169
v 0.149608 0.099983 0.945119
v 0.504975 0.504976 -1.307343
v 0.470607 0.470610 -0.987560
v 0.439446 0.439453 -0.514932
v 0.440508 0.440518 0.046849
v 0.358510 0.358523 0.521753
v 0.307751 0.307766 0.754535
v 0.231092 0.231108 0.865168
v 0.127232 0.127249 0.945119
v 0.396756 0.593789 -1.307344
v 0.369753 0.553378 -0.987561
v 0.345271 0.516741 -0.514933
v 0.346105 0.517993 0.046847
v 0.281680 0.421576 0.521752
v 0.241799 0.361892 0.754534
v 0.181568 0.271752 0.865167
v 0.099965 0.149626 0.945118
v 0.273291 0.659782 -1.307345
v 0.254690 0.614881 -0.987562
v 0.237827 0.574171 -0.514934
v 0.238401 0.575561 0.046846
v 0.194024 0.468429 0.521751
v 0.166554 0.402111 0.754533
v 0.125066 0.301953 0.865167
v 0.068857 0.166253 0.945118
v 0.139322 0.700421 -1.307346
v 0.129840 0.652753 -0.987562
v 0.121243 0.609536 -0.514935
v 0.121536 0.611012 0.046846
v 0.098913 0.497280 0.521751
v 0.084908 0.426878 0.754533
v 0.063758 0.320550 0.865166
v 0.035103 0.176493 0.945118
v -0.000000 0.714143 -1.307346
v -0.000000 0.665542 -0.987563
v 0.000000 0.621478 -0.514935
v -0.000000 0.622982 0.046845
v 0.000000 0.507023 0.521750
v -0.000000 0.435241 0.754533
v -0.000000 0.326830 0.865166
v -0.000000 0.179950 0.945118
v -0.139323 0.700421 -1.307346
v -0.129840 0.652753 -0.987562
v -0.121243 0.609536 -0.514935
v -0.121536 0.611012 0.046846
v -0.098913 0.497280 0.521750
v -0.084908 0.426878 0.754533
v -0.063758 0.320550 0.865166
v -0.035103 0.176493 0.945118
v -0.273291 0.659782 -1.307345
v -0.254690 0.614880 -0.987562
v -0.237827 0.574171 -0.514934
v -0.238401 0.575561 0.046846
v -0.194024 0.468429 0.521751
v -0.166554 0.402111 0.754533
v -0.125066 0.301953 0.865167
v -0.068857 0.166253 0.945118
v -0.396757 0.593788 -1.307344
v -0.369753 0.553378 -0.987561
v -0.345271 0.516741 -0.514933
v -0.346105 0.517992 0.046847
v -0.281680 0.421576 0.521752
v -0.241799 0.361892 0.754534
v -0.181568 0.271752 0.865167
v -0.099965 0.149626 0.945119
v -0.504975 0.504975 -1.307343
v -0.470606 0.470610 -0.987559
v -0.439446 0.439453 -0.514932
v -0.440508 0.440518 0.046848
v -0.358510 0.358523 0.521753
v -0.307751 0.307766 0.754535
v -0.231092 0.231108 0.865168
v -0.127232 0.127249 0.945119
v -0.593788 0.396756 -1.307341
v -0.553375 0.369756 -0.987557
v -0.516734 0.345277 -0.514930
v -0.517982 0.346115 0.046850
v -0.421563 0.281692 0.521754
v -0.361877 0.241813 0.754536
v -0.271736 0.181584 0.865169
v -0.149608 0.099983 0.945119
v -0.659782 0.273290 -1.307338
v -0.614877 0.254694 -0.987555
v -0.574164 0.237833 -0.514928
v -0.575551 0.238411 0.046852
v -0.468416 0.194037 0.521756
v -0.402096 0.166568 0.754538
v -0.301936 0.125082 0.865170
v -0.166236 0.068874 0.945120
v -0.700420 0.139322 -1.307336
v -0.652750 0.129843 -0.987553
v -0.609529 0.121250 -0.514926
v -0.611001 0.121546 0.046854
v -0.497268 0.098925 0.521758
v -0.426863 0.084923 0.754539
v -0.320534 0.063774 0.865171
v -0.176475 0.035120 0.945120
v -0.714143 -0.000000 -1.307333
v -0.665538 0.000003 -0.987551
v -0.621470 0.000007 -0.514924
v -0.622972 0.000010 0.046856
v -0.507010 0.000013 0.521759
v -0.435226 0.000014 0.754541
v -0.326813 0.000016 0.865172
v -0.179932 0.000017 0.945121
v -0.700420 -0.139322 -1.307331
v -0.652749 -0.129837 -0.987548
v -0.609529 -0.121236 -0.514922
v -0.611001 -0.121526 0.046859
v -0.497268 -0.098900 0.521761
v -0.426863 -0.084894 0.754542
v -0.320534 -0.063742 0.865173
v -0.176475 -0.035086 0.945121
v -0.659781 -0.273291 -1.307328
v -0.614876 -0.254687 -0.987546
v -0.574164 -0.237820 -0.514920
v -0.575550 -0.238391 0.046861
v -0.468416 -0.194011 0.521763
v -0.402096 -0.166539 0.754543
v -0.301936 -0.125050 0.865174
v -0.166236 -0.068840 0.945122
v -0.593787 -0.396756 -1.307326
v -0.553374 -0.369750 -0.987544
v -0.516734 -0.345264 -0.514918
v -0.517981 -0.346094 0.046863
v -0.421563 -0.281667 0.521764
v -0.361877 -0.241784 0.754545
v -0.271735 -0.181552 0.865175
v -0.149608 -0.099948 0.945122
v -0.139322 -0.700420 -1.307320
v -0.273290 -0.659781 -1.307322
v -0.396756 -0.593788 -1.307323
v -0.504975 -0.504975 -1.307324
v -0.593787 -0.396756 -1.307326
v -0.659781 -0.273291 -1.307328
v -0.700420 -0.139322 -1.307331
v -0.504975 -0.504975 -1.307324
v -0.470606 -0.470603 -0.987543
v -0.439446 -0.439439 -0.514916
v -0.440507 -0.440497 0.046865
v -0.358510 -0.358497 0.521766
v -0.307751 -0.307737 0.754546
v -0.231092 -0.231076 0.865176
v -0.127231 -0.127214 0.945123
v -0.714143 -0.000000 -1.307333
v -0.700420 0.139322 -1.307336
v -0.659782 0.273290 -1.307338
v -0.593788 0.396756 -1.307341
v -0.504975 0.504975 -1.307343
v -0.396757 0.593788 -1.307344
v -0.273291 0.659782 -1.307345
v -0.396756 -0.593788 -1.307323
v -0.369753 -0.553371 -0.987541
v -0.345270 -0.516727 -0.514915
v -0.346104 -0.517972 0.046866
v -0.281679 -0.421550 0.521767
v -0.241798 -0.361862 0.754547
v -0.181568 -0.271719 0.865176
v -0.099965 -0.149591 0.945123
v -0.139323 0.700421 -1.307346
v -0.000000 0.714143 -1.307346
v 0.139322 0.700421 -1.307346
v 0.273291 0.659782 -1.307345
v 0.396756 0.593789 -1.307344
v 0.504975 0.504976 -1.307343
v 0.593788 0.396757 -1.307341
v -0.273290 -0.659781 -1.307322
v -0.254690 -0.614873 -0.987540
v -0.237826 -0.574157 -0.514914
v -0.238400 -0.575540 0.046867
v -0.194024 -0.468403 0.521768
v -0.166553 -0.402081 0.754548
v -0.125066 -0.301920 0.865177
v -0.068857 -0.166218 0.945123
v 0.659782 0.273291 -1.307338
v 0.700421 0.139323 -1.307336
v 0.714143 0.000000 -1.307333
v 0.700421 -0.139322 -1.307331
v 0.659782 -0.273290 -1.307328
v 0.593788 -0.396756 -1.307326
v 0.504975 -0.504975 -1.307324
v -0.139322 -0.700420 -1.307320
v -0.129840 -0.652746 -0.987539
v -0.121243 -0.609522 -0.514914
v -0.121535 -0.610991 0.046867
v -0.098913 -0.497255 0.521768
v -0.084908 -0.426848 0.754548
v -0.063758 -0.320517 0.865177
v -0.035103 -0.176458 0.945124
v 0.396757 -0.593788 -1.307323
v 0.273291 -0.659782 -1.307322
v 0.139322 -0.700421 -1.307321
v 0.000000 -0.714143 -1.307320
v 0.000000 -0.621463 -0.514913
v 0.000000 -0.506997 0.521769
v 0.000000 -0.435211 0.754549
v 0.000000 -0.326797 0.865177
v 0.000000 -0.179915 0.945124
vn -0.0000 -0.9886 0.1503
vn -0.0000 -0.9926 0.1218
vn -0.0000 -0.9931 0.1173
vn -0.0000 -0.0000 1.0000
vn 0.1929 -0.9696 0.1503
vn 0.1936 -0.9735 0.1218
vn 0.1949 -0.9798 0.0453
vn 0.1937 -0.9740 0.1173
vn 0.1881 -0.9456 0.2656
vn 0.1683 -0.8463 0.5054
vn 0.1187 -0.5969 0.7935
vn 0.0713 -0.3583 0.9309
vn 0.3783 -0.9134 0.1503
vn 0.3798 -0.9170 0.1218
vn 0.3823 -0.9229 0.0453
vn 0.3800 -0.9175 0.1173
vn 0.3689 -0.8907 0.2656
vn 0.3302 -0.7972 0.5054
vn 0.2329 -0.5623 0.7935
vn 0.1398 -0.3375 0.9309
vn 0.5493 -0.8220 0.1503
vn 0.5514 -0.8253 0.1218
vn 0.5550 -0.8306 0.0453
vn 0.5517 -0.8257 0.1173
vn 0.5356 -0.8016 0.2656
vn 0.4794 -0.7175 0.5054
vn 0.3381 -0.5060 0.7935
vn 0.2030 -0.3037 0.9309
vn 0.6991 -0.6991 0.1503
vn 0.7018 -0.7018 0.1218
vn 0.7064 -0.7064 0.0453
vn 0.7022 -0.7022 0.1173
vn 0.6817 -0.6817 0.2656
vn 0.6102 -0.6102 0.5054
vn 0.4304 -0.4303 0.7935
vn 0.2583 -0.2583 0.9309
vn 0.8220 -0.5493 0.1503
vn 0.8253 -0.5514 0.1218
vn 0.8306 -0.5550 0.0453
vn 0.8257 -0.5517 0.1173
vn 0.8016 -0.5356 0.2656
vn 0.7175 -0.4794 0.5054
vn 0.5060 -0.3381 0.7935
vn 0.3038 -0.2029 0.9309
vn 0.9134 -0.3783 0.1503
vn 0.9170 -0.3798 0.1218
vn 0.9229 -0.3823 0.0453
vn 0.9175 -0.3800 0.1173
vn 0.8907 -0.3689 0.2656
vn 0.7972 -0.3302 0.5054
vn 0.5623 -0.2329 0.7935
vn 0.3375 -0.1398 0.9309
vn 0.9696 -0.1929 0.1503
vn 0.9735 -0.1936 0.1218
vn 0.9798 -0.1949 0.0453
vn 0.9740 -0.1937 0.1173
vn 0.9456 -0.1881 0.2656
vn 0.8463 -0.1683 0.5054
vn 0.5969 -0.1187 0.7935
vn 0.3583 -0.0713 0.9309
vn 0.9886 -0.0000 0.1503
vn 0.9926 -0.0000 0.1218
vn 0.9990 -0.0000 0.0453
vn 0.9931 -0.0000 0.1173
vn 0.9641 -0.0000 0.2656
vn 0.8629 -0.0000 0.5054
vn 0.6086 -0.0000 0.7935
vn 0.3653 -0.0000 0.9309
vn 0.9696 0.1929 0.1503
vn 0.9735 0.1936 0.1218
vn 0.9798 0.1949 0.0453
vn 0.9740 0.1937 0.1173
vn 0.9456 0.1881 0.2656
vn 0.8463 0.1684 0.5054
vn 0.5969 0.1187 0.7935
vn 0.3583 0.0713 0.9309
vn 0.9134 0.3783 0.1503
vn 0.9170 0.3798 0.1218
vn 0.9229 0.3823 0.0453
vn 0.9175 0.3800 0.1173
vn 0.8907 0.3689 0.2656
vn 0.7972 0.3302 0.5054
vn 0.5623 0.2329 0.7935
vn 0.3375 0.1398 0.9309
vn 0.8220 0.5493 0.1503
vn 0.8253 0.5514 0.1218
vn 0.8306 0.5550 0.0453
vn 0.8257 0.5517 0.1173
vn 0.8016 0.5356 0.2656
vn 0.7175 0.4794 0.5054
vn 0.5060 0.3381 0.7935
vn 0.3038 0.2030 0.9309
vn 0.6991 0.6991 0.1503
vn 0.7018 0.7018 0.1218
vn 0.7064 0.7064 0.0453
vn 0.7022 0.7022 0.1173
vn 0.6817 0.6817 0.2656
vn 0.6102 0.6102 0.5054
vn 0.4304 0.4304 0.7935
vn 0.2583 0.2583 0.9309
vn 0.5493 0.8220 0.1503
vn 0.5514 0.8253 0.1218
vn 0.5550 0.8306 0.0453
vn 0.5517 0.8257 0.1173
vn 0.5356 0.8016 0.2656
vn 0.4794 0.7175 0.5054
vn 0.3381 0.5061 0.7935
vn 0.2030 0.3038 0.9309
vn 0.3783 0.9134 0.1503
vn 0.3798 0.9170 0.1218
vn 0.3823 0.9229 0.0453
vn 0.3800 0.9175 0.1173
vn 0.3689 0.8907 0.2656
vn 0.3302 0.7972 0.5054
vn 0.2329 0.5623 0.7935
vn 0.1398 0.3375 0.9309
vn 0.1929 0.9697 0.1503
vn 0.1936 0.9735 0.1218
vn 0.1949 0.9798 0.0453
vn 0.1937 0.9740 0.1173
vn 0.1881 0.9456 0.2656
vn 0.1683 0.8463 0.5054
vn 0.1187 0.5969 0.7935
vn 0.0713 0.3583 0.9309
vn -0.0000 0.9886 0.1503
vn -0.0000 0.9926 0.1218
vn -0.0000 0.9990 0.0453
vn -0.0000 0.9931 0.1173
vn -0.0000 0.9641 0.2656
vn -0.0000 0.8629 0.5054
vn -0.0000 0.6086 0.7935
vn -0.0000 0.3653 0.9309
vn -0.1929 0.9697 0.1503
vn -0.1936 0.9735 0.1218
vn -0.1949 0.9798 0.0453
vn -0.1937 0.9740 0.1173
vn -0.1881 0.9456 0.2656
vn -0.1683 0.8463 0.5054
vn -0.1187 0.5969 0.7935
vn -0.0713 0.3583 0.9309
vn -0.3783 0.9134 0.1503
vn -0.3798 0.9170 0.1218
vn -0.3823 0.9229 0.0453
vn -0.3800 0.9175 0.1173
vn -0.3689 0.8907 0.2656
vn -0.3302 0.7972 0.5054
vn -0.2329 0.5623 0.7935
vn -0.1398 0.3375 0.9309
vn -0.5493 0.8220 0.1503
vn -0.5514 0.8253 0.1218
vn -0.5550 0.8306 0.0453
vn -0.5517 0.8257 0.1173
vn -0.5356 0.8016 0.2656
vn -0.4794 0.7175 0.5054
vn -0.3381 0.5061 0.7935
vn -0.2030 0.3038 0.9309
vn -0.6991 0.6991 0.1503
vn -0.7018 0.7018 0.1218
vn -0.7064 0.7064 0.0453
vn -0.7022 0.7022 0.1173
vn -0.6817 0.6817 0.2656
vn -0.6102 0.6102 0.5054
vn -0.4304 0.4304 0.7935
vn -0.2583 0.2583 0.9309
vn -0.8220 0.5493 0.1503
vn -0.8253 0.5514 0.1218
vn -0.8306 0.5550 0.0453
vn -0.8257 0.5517 0.1173
vn -0.8016 0.5356 0.2656
vn -0.7175 0.4794 0.5054
vn -0.5060 0.3381 0.7935
vn -0.3038 0.2030 0.9309
vn -0.9134 0.3783 0.1503
vn -0.9170 0.3798 0.1218
vn -0.9229 0.3823 0.0453
vn -0.9175 0.3800 0.1173
vn -0.8907 0.3689 0.2656
vn -0.7972 0.3302 0.5054
vn -0.5623 0.2329 0.7935
vn -0.3375 0.1398 0.9309
vn -0.9696 0.1929 0.1503
vn -0.9735 0.1936 0.1218
vn -0.9798 0.1949 0.0453
vn -0.9740 0.1937 0.1173
vn -0.9456 0.1881 0.2656
vn -0.8463 0.1684 0.5054
vn -0.5969 0.1187 0.7935
vn -0.3583 0.0713 0.9309
vn -0.9886 -0.0000 0.1503
vn -0.9926 -0.0000 0.1218
vn -0.9990 -0.0000 0.0453
vn -0.9931 -0.0000 0.1173
vn -0.9641 -0.0000 0.2656
vn -0.8629 -0.0000 0.5054
vn -0.6086 -0.0000 0.7935
vn -0.3653 -0.0000 0.9309
vn -0.9696 -0.1929 0.1503
vn -0.9735 -0.1936 0.1218
vn -0.9798 -0.1949 0.0453
vn -0.9740 -0.1937 0.1173
vn -0.9456 -0.1881 0.2656
vn -0.8463 -0.1683 0.5054
vn -0.5969 -0.1187 0.7935
vn -0.3583 -0.0713 0.9309
vn -0.9134 -0.3783 0.1503
vn -0.9170 -0.3798 0.1218
vn -0.9229 -0.3823 0.0453
vn -0.9175 -0.3800 0.1173
vn -0.8907 -0.3689 0.2656
vn -0.7972 -0.3302 0.5054
vn -0.5623 -0.2329 0.7935
vn -0.3375 -0.1398 0.9309
vn -0.8220 -0.5493 0.1503
vn -0.8253 -0.5514 0.1218
vn -0.8306 -0.5550 0.0453
vn -0.8257 -0.5517 0.1173
vn -0.8016 -0.5356 0.2656
vn -0.7175 -0.4794 0.5054
vn -0.5060 -0.3381 0.7935
vn -0.3038 -0.2029 0.9309
vn -0.6991 -0.6991 0.1503
vn -0.7018 -0.7018 0.1218
vn -0.7064 -0.7064 0.0453
vn -0.7022 -0.7022 0.1173
vn -0.6817 -0.6817 0.2656
vn -0.6102 -0.6102 0.5054
vn -0.4304 -0.4303 0.7935
vn -0.2583 -0.2583 0.9309
vn -0.5493 -0.8220 0.1503
vn -0.5514 -0.8253 0.1218
vn -0.5550 -0.8306 0.0453
vn -0.5517 -0.8257 0.1173
vn -0.5356 -0.8016 0.2656
vn -0.4794 -0.7175 0.5054
vn -0.3381 -0.5060 0.7935
vn -0.2030 -0.3037 0.9309
vn -0.3783 -0.9134 0.1503
vn -0.3798 -0.9170 0.1218
vn -0.3823 -0.9229 0.0453
vn -0.3800 -0.9175 0.1173
vn -0.3689 -0.8907 0.2656
vn -0.3302 -0.7972 0.5054
vn -0.2329 -0.5623 0.7935
vn -0.1398 -0.3375 0.9309
vn -0.1929 -0.9696 0.1503
vn -0.1936 -0.9735 0.1218
vn -0.1949 -0.9798 0.0453
vn -0.1937 -0.9740 0.1173
vn -0.1881 -0.9456 0.2656
vn -0.1683 -0.8463 0.5054
vn -0.1187 -0.5969 0.7935
vn -0.0713 -0.3583 0.9309
vn -0.0000 -0.9990 0.0453
vn -0.0000 -0.9641 0.2656
vn -0.0000 -0.8629 0.5054
vn -0.0000 -0.6086 0.7935
vn -0.0000 -0.3653 0.9309
vt 0.734375 0.008313
vt 0.750000 0.132293
vt 0.718750 0.132293
vt 0.750000 0.876171
vt 0.750000 1.000151
vt 0.718750 1.000151
vt 0.718750 0.876171
vt 0.750000 0.752191
vt 0.718750 0.752192
vt 0.750000 0.628212
vt 0.718750 0.628212
vt 0.750000 0.504232
vt 0.718750 0.504232
vt 0.750000 0.380252
vt 0.718750 0.380252
vt 0.750000 0.256273
vt 0.718750 0.256273
vt 0.687500 0.380252
vt 0.687500 0.256273
vt 0.687500 0.132293
vt 0.703125 0.008313
vt 0.687500 1.000151
vt 0.687500 0.876171
vt 0.687500 0.752192
vt 0.687500 0.628212
vt 0.687500 0.504232
vt 0.656250 0.752192
vt 0.656250 0.628212
vt 0.656250 0.504232
vt 0.656250 0.380252
vt 0.656250 0.256273
vt 0.656250 0.132293
vt 0.671875 0.008313
vt 0.656250 1.000151
vt 0.656250 0.876171
vt 0.625000 0.256273
vt 0.625000 0.132293
vt 0.640625 0.008313
vt 0.625000 1.000151
vt 0.625000 0.876171
vt 0.625000 0.752192
vt 0.625000 0.628212
vt 0.625000 0.504232
vt 0.625000 0.380252
vt 0.593750 0.628212
vt 0.593750 0.504232
vt 0.593750 0.380252
vt 0.593750 0.256273
vt 0.593750 0.132293
vt 0.609375 0.008313
vt 0.593750 1.000151
vt 0.593750 0.876171
vt 0.593750 0.752192
vt 0.578125 0.008313
vt 0.562500 0.132293
vt 0.562500 1.000151
vt 0.562500 0.876171
vt 0.562500 0.752192
vt 0.562500 0.628212
vt 0.562500 0.504232
vt 0.562500 0.380252
vt 0.562500 0.256273
vt 0.531250 0.628212
vt 0.531250 0.504232
vt 0.531250 0.380252
vt 0.531250 0.256273
vt 0.531250 0.132293
vt 0.546875 0.008313
vt 0.531250 1.000151
vt 0.531250 0.876171
vt 0.531250 0.752192
vt 0.515625 0.008313
vt 0.500000 0.132293
vt 0.500000 1.000151
vt 0.500000 0.876171
vt 0.500000 0.752192
vt 0.500000 0.628212
vt 0.500000 0.504232
vt 0.500000 0.380252
vt 0.500000 0.256273
vt 0.468750 0.504232
vt 0.468750 0.380252
vt 0.468750 0.256273
vt 0.468750 0.132293
vt 0.484375 0.008313
vt 0.468750 1.000151
vt 0.468750 0.876171
vt 0.468750 0.752192
vt 0.468750 0.628212
vt 0.437500 1.000151
vt 0.437500 0.876171
vt 0.437500 0.752192
vt 0.437500 0.628212
vt 0.437500 0.504232
vt 0.437500 0.380252
vt 0.437500 0.256273
vt 0.437500 0.132293
vt 0.453125 0.008313
vt 0.406250 0.504232
vt 0.406250 0.380252
vt 0.406250 0.256273
vt 0.406250 0.132293
vt 0.421875 0.008313
vt 0.406250 1.000151
vt 0.406250 0.876171
vt 0.406250 0.752192
vt 0.406250 0.628212
vt 0.375000 0.876171
vt 0.375000 0.752192
vt 0.375000 0.628212
vt 0.375000 0.504232
vt 0.375000 0.380252
vt 0.375000 0.256273
vt 0.375000 0.132293
vt 0.390625 0.008313
vt 0.375000 1.000151
vt 0.343750 0.380252
vt 0.343750 0.256273
vt 0.343750 0.132293
vt 0.359375 0.008313
vt 0.343750 1.000151
vt 0.343750 0.876171
vt 0.343750 0.752192
vt 0.343750 0.628212
vt 0.343750 0.504232
vt 0.312500 0.752192
vt 0.312500 0.628212
vt 0.312500 0.504232
vt 0.312500 0.380252
vt 0.312500 0.256273
vt 0.312500 0.132293
vt 0.328125 0.008313
vt 0.312500 1.000151
vt 0.312500 0.876171
vt 0.281250 0.256273
vt 0.281250 0.132293
vt 0.296875 0.008313
vt 0.281250 1.000151
vt 0.281250 0.876171
vt 0.281250 0.752192
vt 0.281250 0.628212
vt 0.281250 0.504232
vt 0.281250 0.380252
vt 0.250000 0.752192
vt 0.250000 0.628212
vt 0.250000 0.504232
vt 0.250000 0.380252
vt 0.250000 0.256273
vt 0.250000 0.132293
vt 0.265625 0.008313
vt 0.250000 1.000151
vt 0.250000 0.876171
vt 0.218750 0.256273
vt 0.218750 0.132293
vt 0.234375 0.008313
vt 0.218750 1.000151
vt 0.218750 0.876171
vt 0.218750 0.752192
vt 0.218750 0.628212
vt 0.218750 0.504232
vt 0.218750 0.380252
vt 0.187500 0.628212
vt 0.187500 0.504232
vt 0.187500 0.380252
vt 0.187500 0.256273
vt 0.187500 0.132293
vt 0.203125 0.008313
vt 0.187500 1.000151
vt 0.187500 0.876171
vt 0.187500 0.752191
vt 0.171875 0.008313
vt 0.156250 0.132293
vt 0.156250 1.000151
vt 0.156250 0.876171
vt 0.156250 0.752191
vt 0.156250 0.628212
vt 0.156250 0.504232
vt 0.156250 0.380252
vt 0.156250 0.256273
vt 0.125000 0.628212
vt 0.125000 0.504232
vt 0.125000 0.380252
vt 0.125000 0.256273
vt 0.125000 0.132293
vt 0.140625 0.008313
vt 0.125000 1.000151
vt 0.125000 0.876171
vt 0.125000 0.752191
vt 0.109375 0.008313
vt 0.093750 0.132293
vt 0.093750 1.000151
vt 0.093750 0.876171
vt 0.093750 0.752191
vt 0.093750 0.628212
vt 0.093750 0.504232
vt 0.093750 0.380252
vt 0.093750 0.256273
vt 0.062500 0.504232
vt 0.062500 0.380252
vt 0.062500 0.256273
vt 0.062500 0.132293
vt 0.078125 0.008313
vt 0.062500 1.000151
vt 0.062500 0.876171
vt 0.062500 0.752191
vt 0.062500 0.628212
vt 0.031250 0.876171
vt 0.031250 0.752191
vt 0.031250 0.628212
vt 0.031250 0.504232
vt 0.031250 0.380252
vt 0.031250 0.256273
vt 0.031250 0.132293
vt 0.046875 0.008313
vt 0.031250 1.000151
vt 0.000000 0.380252
vt 0.000000 0.256273
vt 0.000000 0.132293
vt 0.015625 0.008313
vt 0.000000 1.000151
vt 0.000000 0.876171
vt 0.000000 0.752191
vt 0.000000 0.628212
vt 0.000000 0.504232
vt 1.000000 0.752191
vt 1.000000 0.876171
vt 0.968750 0.876171
vt 0.968750 0.752191
vt 1.000000 0.628212
vt 0.968750 0.628212
vt 1.000000 0.504232
vt 0.968750 0.504232
vt 1.000000 0.380252
vt 0.968750 0.380252
vt 1.000000 0.256273
vt 0.968750 0.256273
vt 1.000000 0.132293
vt 0.968750 0.132293
vt 0.984375 0.008313
vt 1.000000 1.000151
vt 0.968750 1.000151
vt 0.937500 0.380252
vt 0.937500 0.256273
vt 0.937500 0.132293
vt 0.953125 0.008313
vt 0.937500 1.000151
vt 0.937500 0.876171
vt 0.937500 0.752191
vt 0.937500 0.628212
vt 0.937500 0.504232
vt 0.906250 0.752191
vt 0.906250 0.628212
vt 0.906250 0.504232
vt 0.906250 0.380252
vt 0.906250 0.256273
vt 0.906250 0.132293
vt 0.921875 0.008313
vt 0.906250 1.000151
vt 0.906250 0.876171
vt 0.875000 0.256273
vt 0.875000 0.132293
vt 0.890625 0.008313
vt 0.875000 1.000151
vt 0.875000 0.876171
vt 0.875000 0.752191
vt 0.875000 0.628212
vt 0.875000 0.504232
vt 0.875000 0.380252
vt 0.843750 0.752191
vt 0.843750 0.628212
vt 0.843750 0.504232
vt 0.843750 0.380252
vt 0.843750 0.256273
vt 0.843750 0.132293
vt 0.859375 0.008313
vt 0.843750 1.000151
vt 0.843750 0.876171
vt 0.812500 0.256273
vt 0.812500 0.132293
vt 0.828125 0.008313
vt 0.812500 1.000151
vt 0.812500 0.876171
vt 0.812500 0.752191
vt 0.812500 0.628212
vt 0.812500 0.504232
vt 0.812500 0.380252
vt 0.781250 0.628212
vt 0.781250 0.504232
vt 0.781250 0.380252
vt 0.781250 0.256273
vt 0.781250 0.132293
vt 0.796875 0.008313
vt 0.781250 1.000151
vt 0.781250 0.876171
vt 0.781250 0.752191
vt 0.765625 0.008313
s 1
f 4/1/4 289/2/257 12/3/12
f 2/4/2 1/5/1 5/6/5 6/7/6
f 285/8/253 2/4/2 6/7/6 7/9/7
f 3/10/3 285/8/253 7/9/7 8/11/8
f 286/12/254 3/10/3 8/11/8 9/13/9
f 287/14/255 286/12/254 9/13/9 10/15/10
f 288/16/256 287/14/255 10/15/10 11/17/11
f 289/2/257 288/16/256 11/17/11 12/3/12
f 11/17/11 10/15/10 18/18/18 19/19/19
f 12/3/12 11/17/11 19/19/19 20/20/20
f 4/21/4 12/3/12 20/20/20
f 6/7/6 5/6/5 13/22/13 14/23/14
f 7/9/7 6/7/6 14/23/14 15/24/15
f 8/11/8 7/9/7 15/24/15 16/25/16
f 9/13/9 8/11/8 16/25/16 17/26/17
f 10/15/10 9/13/9 17/26/17 18/18/18
f 16/25/16 15/24/15 23/27/23 24/28/24
f 17/26/17 16/25/16 24/28/24 25/29/25
f 18/18/18 17/26/17 25/29/25 26/30/26
f 19/19/19 18/18/18 26/30/26 27/31/27
f 20/20/20 19/19/19 27/31/27 28/32/28
f 4/33/4 20/20/20 28/32/28
f 14/23/14 13/22/13 21/34/21 22/35/22
f 15/24/15 14/23/14 22/35/22 23/27/23
f 28/32/28 27/31/27 35/36/35 36/37/36
f 4/38/4 28/32/28 36/37/36
f 22/35/22 21/34/21 29/39/29 30/40/30
f 23/27/23 22/35/22 30/40/30 31/41/31
f 24/28/24 23/27/23 31/41/31 32/42/32
f 25/29/25 24/28/24 32/42/32 33/43/33
f 26/30/26 25/29/25 33/43/33 34/44/34
f 27/31/27 26/30/26 34/44/34 35/36/35
f 33/43/33 32/42/32 40/45/40 41/46/41
f 34/44/34 33/43/33 41/46/41 42/47/42
f 35/36/35 34/44/34 42/47/42 43/48/43
f 36/37/36 35/36/35 43/48/43 44/49/44
f 4/50/4 36/37/36 44/49/44
f 30/40/30 29/39/29 37/51/37 38/52/38
f 31/41/31 30/40/30 38/52/38 39/53/39
f 32/42/32 31/41/31 39/53/39 40/45/40
f 4/54/4 44/49/44 52/55/52
f 38/52/38 37/51/37 45/56/45 46/57/46
f 39/53/39 38/52/38 46/57/46 47/58/47
f 40/45/40 39/53/39 47/58/47 48/59/48
f 41/46/41 40/45/40 48/59/48 49/60/49
f 42/47/42 41/46/41 49/60/49 50/61/50
f 43/48/43 42/47/42 50/61/50 51/62/51
f 44/49/44 43/48/43 51/62/51 52/55/52
f 49/60/49 48/59/48 56/63/56 57/64/57
f 50/61/50 49/60/49 57/64/57 58/65/58
f 51/62/51 50/61/50 58/65/58 59/66/59
f 52/55/52 51/62/51 59/66/59 60/67/60
f 4/68/4 52/55/52 60/67/60
f 46/57/46 45/56/45 53/69/53 54/70/54
f 47/58/47 46/57/46 54/70/54 55/71/55
f 48/59/48 47/58/47 55/71/55 56/63/56
f 4/72/4 60/67/60 68/73/68
f 54/70/54 53/69/53 61/74/61 62/75/62
f 55/71/55 54/70/54 62/75/62 63/76/63
f 56/63/56 55/71/55 63/76/63 64/77/64
f 57/64/57 56/63/56 64/77/64 65/78/65
f 58/65/58 57/64/57 65/78/65 66/79/66
f 59/66/59 58/65/58 66/79/66 67/80/67
f 60/67/60 59/66/59 67/80/67 68/73/68
f 66/79/66 65/78/65 73/81/73 74/82/74
f 67/80/67 66/79/66 74/82/74 75/83/75
f 68/73/68 67/80/67 75/83/75 76/84/76
f 4/85/4 68/73/68 76/84/76
f 62/75/62 61/74/61 69/86/69 70/87/70
f 63/76/63 62/75/62 70/87/70 71/88/71
f 64/77/64 63/76/63 71/88/71 72/89/72
f 65/78/65 64/77/64 72/89/72 73/81/73
f 70/87/70 69/86/69 77/90/77 78/91/78
f 71/88/71 70/87/70 78/91/78 79/92/79
f 72/89/72 71/88/71 79/92/79 80/93/80
f 73/81/73 72/89/72 80/93/80 81/94/81
f 74/82/74 73/81/73 81/94/81 82/95/82
f 75/83/75 74/82/74 82/95/82 83/96/83
f 76/84/76 75/83/75 83/96/83 84/97/84
f 4/98/4 76/84/76 84/97/84
f 82/95/82 81/94/81 89/99/89 90/100/90
f 83/96/83 82/95/82 90/100/90 91/101/91
f 84/97/84 83/96/83 91/101/91 92/102/92
f 4/103/4 84/97/84 92/102/92
f 78/91/78 77/90/77 85/104/85 86/105/86
f 79/92/79 78/91/78 86/105/86 87/106/87
f 80/93/80 79/92/79 87/106/87 88/107/88
f 81/94/81 80/93/80 88/107/88 89/99/89
f 87/106/87 86/105/86 94/108/94 95/109/95
f 88/107/88 87/106/87 95/109/95 96/110/96
f 89/99/89 88/107/88 96/110/96 97/111/97
f 90/100/90 89/99/89 97/111/97 98/112/98
f 91/101/91 90/100/90 98/112/98 99/113/99
f 92/102/92 91/101/91 99/113/99 100/114/100
f 4/115/4 92/102/92 100/114/100
f 86/105/86 85/104/85 93/116/93 94/108/94
f 99/113/99 98/112/98 106/117/106 107/118/107
f 100/114/100 99/113/99 107/118/107 108/119/108
f 4/120/4 100/114/100 108/119/108
f 94/108/94 93/116/93 101/121/101 102/122/102
f 95/109/95 94/108/94 102/122/102 103/123/103
f 96/110/96 95/109/95 103/123/103 104/124/104
f 97/111/97 96/110/96 104/124/104 105/125/105
f 98/112/98 97/111/97 105/125/105 106/117/106
f 104/124/104 103/123/103 111/126/111 112/127/112
f 105/125/105 104/124/104 112/127/112 113/128/113
f 106/117/106 105/125/105 113/128/113 114/129/114
f 107/118/107 106/117/106 114/129/114 115/130/115
f 108/119/108 107/118/107 115/130/115 116/131/116
f 4/132/4 108/119/108 116/131/116
f 102/122/102 101/121/101 109/133/109 110/134/110
f 103/123/103 102/122/102 110/134/110 111/126/111
f 116/131/116 115/130/115 123/135/123 124/136/124
f 4/137/4 116/131/116 124/136/124
f 110/134/110 109/133/109 117/138/117 118/139/118
f 111/126/111 110/134/110 118/139/118 119/140/119
f 112/127/112 111/126/111 119/140/119 120/141/120
f 113/128/113 112/127/112 120/141/120 121/142/121
f 114/129/114 113/128/113 121/142/121 122/143/122
f 115/130/115 114/129/114 122/143/122 123/135/123
f 120/141/120 119/140/119 127/144/127 128/145/128
f 121/142/121 120/141/120 128/145/128 129/146/129
f 122/143/122 121/142/121 129/146/129 130/147/130
f 123/135/123 122/143/122 130/147/130 131/148/131
f 124/136/124 123/135/123 131/148/131 132/149/132
f 4/150/4 124/136/124 132/149/132
f 118/139/118 117/138/117 125/151/125 126/152/126
f 119/140/119 118/139/118 126/152/126 127/144/127
f 132/149/132 131/148/131 139/153/139 140/154/140
f 4/155/4 132/149/132 140/154/140
f 126/152/126 125/151/125 133/156/133 134/157/134
f 127/144/127 126/152/126 134/157/134 135/158/135
f 128/145/128 127/144/127 135/158/135 136/159/136
f 129/146/129 128/145/128 136/159/136 137/160/137
f 130/147/130 129/146/129 137/160/137 138/161/138
f 131/148/131 130/147/130 138/161/138 139/153/139
f 137/160/137 136/159/136 144/162/144 145/163/145
f 138/161/138 137/160/137 145/163/145 146/164/146
f 139/153/139 138/161/138 146/164/146 147/165/147
f 140/154/140 139/153/139 147/165/147 148/166/148
f 4/167/4 140/154/140 148/166/148
f 134/157/134 133/156/133 141/168/141 142/169/142
f 135/158/135 134/157/134 142/169/142 143/170/143
f 136/159/136 135/158/135 143/170/143 144/162/144
f 4/171/4 148/166/148 156/172/156
f 142/169/142 141/168/141 149/173/149 150/174/150
f 143/170/143 142/169/142 150/174/150 151/175/151
f 144/162/144 143/170/143 151/175/151 152/176/152
f 145/163/145 144/162/144 152/176/152 153/177/153
f 146/164/146 145/163/145 153/177/153 154/178/154
f 147/165/147 146/164/146 154/178/154 155/179/155
f 148/166/148 147/165/147 155/179/155 156/172/156
f 153/177/153 152/176/152 160/180/160 161/181/161
f 154/178/154 153/177/153 161/181/161 162/182/162
f 155/179/155 154/178/154 162/182/162 163/183/163
f 156/172/156 155/179/155 163/183/163 164/184/164
f 4/185/4 156/172/156 164/184/164
f 150/174/150 149/173/149 157/186/157 158/187/158
f 151/175/151 150/174/150 158/187/158 159/188/159
f 152/176/152 151/175/151 159/188/159 160/180/160
f 4/189/4 164/184/164 172/190/172
f 158/187/158 157/186/157 165/191/165 166/192/166
f 159/188/159 158/187/158 166/192/166 167/193/167
f 160/180/160 159/188/159 167/193/167 168/194/168
f 161/181/161 160/180/160 168/194/168 169/195/169
f 162/182/162 161/181/161 169/195/169 170/196/170
f 163/183/163 162/182/162 170/196/170 171/197/171
f 164/184/164 163/183/163 171/197/171 172/190/172
f 170/196/170 169/195/169 177/198/177 178/199/178
f 171/197/171 170/196/170 178/199/178 179/200/179
f 172/190/172 171/197/171 179/200/179 180/201/180
f 4/202/4 172/190/172 180/201/180
f 166/192/166 165/191/165 173/203/173 174/204/174
f 167/193/167 166/192/166 174/204/174 175/205/175
f 168/194/168 167/193/167 175/205/175 176/206/176
f 169/195/169 168/194/168 176/206/176 177/198/177
f 175/205/175 174/204/174 182/207/182 183/208/183
f 176/206/176 175/205/175 183/208/183 184/209/184
f 177/198/177 176/206/176 184/209/184 185/210/185
f 178/199/178 177/198/177 185/210/185 186/211/186
f 179/200/179 178/199/178 186/211/186 187/212/187
f 180/201/180 179/200/179 187/212/187 188/213/188
f 4/214/4 180/201/180 188/213/188
f 174/204/174 173/203/173 181/215/181 182/207/182
f 187/212/187 186/211/186 194/216/194 195/217/195
f 188/213/188 187/212/187 195/217/195 196/218/196
f 4/219/4 188/213/188 196/218/196
f 182/207/182 181/215/181 189/220/189 190/221/190
f 183/208/183 182/207/182 190/221/190 191/222/191
f 184/209/184 183/208/183 191/222/191 192/223/192
f 185/210/185 184/209/184 192/223/192 193/224/193
f 186/211/186 185/210/185 193/224/193 194/216/194
f 191/225/191 190/226/190 198/227/198 199/228/199
f 192/229/192 191/225/191 199/228/199 200/230/200
f 193/231/193 192/229/192 200/230/200 201/232/201
f 194/233/194 193/231/193 201/232/201 202/234/202
f 195/235/195 194/233/194 202/234/202 203/236/203
f 196/237/196 195/235/195 203/236/203 204/238/204
f 4/239/4 196/237/196 204/238/204
f 190/226/190 189/240/189 197/241/197 198/227/198
f 203/236/203 202/234/202 210/242/210 211/243/211
f 204/238/204 203/236/203 211/243/211 212/244/212
f 4/245/4 204/238/204 212/244/212
f 198/227/198 197/241/197 205/246/205 206/247/206
f 199/228/199 198/227/198 206/247/206 207/248/207
f 200/230/200 199/228/199 207/248/207 208/249/208
f 201/232/201 200/230/200 208/249/208 209/250/209
f 202/234/202 201/232/201 209/250/209 210/242/210
f 208/249/208 207/248/207 215/251/215 216/252/216
f 209/250/209 208/249/208 216/252/216 217/253/217
f 210/242/210 209/250/209 217/253/217 218/254/218
f 211/243/211 210/242/210 218/254/218 219/255/219
f 212/244/212 211/243/211 219/255/219 220/256/220
f 4/257/4 212/244/212 220/256/220
f 206/247/206 205/246/205 213/258/213 214/259/214
f 207/248/207 206/247/206 214/259/214 215/251/215
f 220/256/220 219/255/219 234/260/227 235/261/228
f 4/262/4 220/256/220 235/261/228
f 214/259/214 213/258/213 228/263/221 229/264/222
f 215/251/215 214/259/214 229/264/222 230/265/223
f 216/252/216 215/251/215 230/265/223 231/266/224
f 217/253/217 216/252/216 231/266/224 232/267/225
f 218/254/218 217/253/217 232/267/225 233/268/226
f 219/255/219 218/254/218 233/268/226 234/260/227
f 231/266/224 230/265/223 245/269/231 246/270/232
f 232/267/225 231/266/224 246/270/232 247/271/233
f 233/268/226 232/267/225 247/271/233 248/272/234
f 234/260/227 233/268/226 248/272/234 249/273/235
f 235/261/228 234/260/227 249/273/235 250/274/236
f 4/275/4 235/261/228 250/274/236
f 229/264/222 228/263/221 243/276/229 244/277/230
f 230/265/223 229/264/222 244/277/230 245/269/231
f 250/274/236 249/273/235 264/278/243 265/279/244
f 4/280/4 250/274/236 265/279/244
f 244/277/230 243/276/229 258/281/237 259/282/238
f 245/269/231 244/277/230 259/282/238 260/283/239
f 246/270/232 245/269/231 260/283/239 261/284/240
f 247/271/233 246/270/232 261/284/240 262/285/241
f 248/272/234 247/271/233 262/285/241 263/286/242
f 249/273/235 248/272/234 263/286/242 264/278/243
f 262/285/241 261/284/240 276/287/248 277/288/249
f 263/286/242 262/285/241 277/288/249 278/289/250
f 264/278/243 263/286/242 278/289/250 279/290/251
f 265/279/244 264/278/243 279/290/251 280/291/252
f 4/292/4 265/279/244 280/291/252
f 259/282/238 258/281/237 273/293/245 274/294/246
f 260/283/239 259/282/238 274/294/246 275/295/247
f 261/284/240 260/283/239 275/295/247 276/287/248
f 4/296/4 280/291/252 289/2/257
f 274/294/246 273/293/245 1/5/1 2/4/2
f 275/295/247 274/294/246 2/4/2 285/8/253
f 276/287/248 275/295/247 285/8/253 3/10/3
f 277/288/249 276/287/248 3/10/3 286/12/254
f 278/289/250 277/288/249 286/12/254 287/14/255
f 279/290/251 278/289/250 287/14/255 288/16/256
f 280/291/252 279/290/251 288/16/256 289/2/257
l 221 284
l 222 223
l 224 225
l 226 227
l 236 237
l 238 239
l 240 241
l 242 251
l 252 253
l 254 255
l 225 226
l 221 222
l 223 224
l 256 257
l 267 266
l 269 268
l 269 270
l 271 272
l 272 281
l 282 283
l 251 252
l 241 242
l 253 254
l 255 256
l 227 236
l 237 238
l 240 239
l 283 284
l 257 266
l 267 268
l 270 271
l 281 282
